<svg xmlns="http://www.w3.org/2000/svg" xmlns:xlink="http://www.w3.org/1999/xlink">
  <defs/>
  <g>
    <path stroke="none" fill="#333335" d="M0 0 L1024 0 1024 1024 0 1024 0 0"/>
    <path stroke="none" fill="#1E1E1E" fill-opacity="0.5019607843137255" d="M896 0 L896 128 768 128 768 256 640 256 640 384 512 384 512 512 384 512 384 640 256 640 256 768 128 768 128 896 0 896 0 0 896 0"/>
    <path fill="none" stroke="#FFFFFF" stroke-width="4" stroke-linecap="butt" stroke-linejoin="miter" stroke-miterlimit="3" d="M896 0 L896 128 768 128 768 256 640 256 640 384 512 384 512 512 384 512 384 640 256 640 256 768 128 768 128 896 0 896"/>
    <path stroke="none" fill="#FFFFFF" fill-opacity="0.10196078431372549" d="M1022 128 L1022 129 897 129 897 256 1022 256 1022 257 897 257 897 384 1022 384 1022 385 897 385 897 510 896 510 896 385 769 385 769 510 768 510 768 385 641 385 641 510 640 510 640 385 514 385 514 384 640 384 640 257 514 257 514 256 640 256 640 129 514 129 514 128 640 128 640 2 641 2 641 128 768 128 768 2 769 2 769 128 896 128 896 2 897 2 897 128 1022 128 M768 257 L641 257 641 384 768 384 768 257 M769 257 L769 384 896 384 896 257 769 257 M768 256 L768 129 641 129 641 256 768 256 M769 256 L896 256 896 129 769 129 769 256 M896 514.05 L897 514.05 897 640 1022 640 1022 641 897 641 897 768 1022 768 1022 769 897 769 897 896 1022 896 1022 897 897 897 897 1022 896 1022 896 897 769 897 769 1022 768 1022 768 897 641 897 641 1022 640 1022 640 897 514 897 514 896 640 896 640 769 514 769 514 768 640 768 640 641 514 641 514 640 640 640 640 514.05 641 514.05 641 640 768 640 768 514.05 769 514.05 769 640 896 640 896 514.05 M768 768 L768 641 641 641 641 768 768 768 M769 768 L896 768 896 641 769 641 769 768 M769 769 L769 896 896 896 896 769 769 769 M510 128 L510 129 385 129 385 256 510 256 510 257 385 257 385 384 510 384 510 385 385 385 385 510 384 510 384 385 257 385 257 510 256 510 256 385 129 385 129 510 128 510 128 385 2 385 2 384 128 384 128 257 2 257 2 256 128 256 128 129 2 129 2 128 128 128 128 2 129 2 129 128 256 128 256 2 257 2 257 128 384 128 384 2 385 2 385 128 510 128 M384 384 L384 257 257 257 257 384 384 384 M384 129 L257 129 257 256 384 256 384 129 M256 257 L129 257 129 384 256 384 256 257 M129 129 L129 256 256 256 256 129 129 129 M256 514 L257 514 257 640 384 640 384 514 385 514 385 640 510 640 510 641 385 641 385 768 510 768 510 769 385 769 385 896 510 896 510 897 385 897 385 1022 384 1022 384 897 257 897 257 1022 256 1022 256 897 129 897 129 1022 128 1022 128 897 2 897 2 896 128 896 128 769 2 769 2 768 128 768 128 641 2 641 2 640 128 640 128 514 129 514 129 640 256 640 256 514 M256 768 L256 641 129 641 129 768 256 768 M257 768 L384 768 384 641 257 641 257 768 M256 769 L129 769 129 896 256 896 256 769 M257 769 L257 896 384 896 384 769 257 769 M768 769 L641 769 641 896 768 896 768 769"/>
    <path stroke="none" fill="#FFFFFF" d="M1022 129 L1022 128 1022 2 897 2 896 2 769 2 768 2 641 2 640 2 514 2 510 2 385 2 384 2 257 2 256 2 129 2 128 2 2 2 2 128 2 129 2 256 2 257 2 384 2 385 2 510 2 514 2 640 2 641 2 768 2 769 2 896 2 897 2 1022 128 1022 129 1022 256 1022 257 1022 384 1022 385 1022 510 1022 514 1022 640 1022 641 1022 768 1022 769 1022 896 1022 897 1022 1022 1022 1022 897 1022 896 1022 769 1022 768 1022 641 1022 640 1022 514.05 1022 510 1022 385 1022 384 1022 257 1022 256 1022 129 M0 0 L1024 0 1024 1024 0 1024 0 0"/>
    <path stroke="none" fill="#FFFFFF" fill-opacity="0.5019607843137255" d="M514 128 L514 129 514 256 514 257 514 384 514 385 514 510 640 510 641 510 768 510 769 510 896 510 897 510 1022 510 1022 514.05 897 514.05 896 514.05 769 514.05 768 514.05 641 514.05 640 514.05 514 514 514 640 514 641 514 768 514 769 514 896 514 897 514 1022 510 1022 510 897 510 896 510 769 510 768 510 641 510 640 510 514 385 514 384 514 257 514 256 514 129 514 128 514 2 514 2 510 128 510 129 510 256 510 257 510 384 510 385 510 510 510 510 385 510 384 510 257 510 256 510 129 510 128 510 2 514 2 514 128"/>
    <path stroke="none" fill="#FFFFFF" d="M173 102.4 L175.65 99.4 Q176.45 98.3 176.45 97.25 176.45 96.15 175.75 95.45 175.05 94.75 174 94.75 172 94.75 170.25 97.6 L166.5 95.35 Q167.95 93.1 169.7 91.95 171.45 90.75 174.2 90.75 176.9 90.75 178.95 92.45 181 94.2 181 97.15 181 98.8 180.15 100.3 179.35 101.75 177.15 104.05 L173.35 108 181.6 108 181.6 112.2 166.85 112.2 166.85 108.7 173 102.4 M192.6 103.15 L192.6 99.5 197.1 99.5 197.1 103.15 199.5 103.15 199.5 107.2 197.1 107.2 197.1 112.2 192.6 112.2 192.6 107.2 184.2 107.2 184.2 103.6 191.65 91.2 196.75 91.2 189.65 103.15 192.6 103.15 M84.1 57.65 L75.6 57.65 74.35 61 67.9 61 76.9 39.95 83.3 39.95 91.95 61 85.3 61 84.1 57.65 M99.75 61 L93.5 61 93.5 39.95 99.75 39.95 99.75 61 M115.6 61 L112.8 55.35 109.5 55.35 109.5 61 103.25 61 103.25 39.95 113.1 39.95 Q117.35 40 119.65 41.9 121.95 43.85 121.95 47.45 121.95 49.8 121.05 51.45 120.15 53.15 118.4 54.15 L122.7 61 115.6 61 M109.5 50.55 L113.1 50.55 Q114.5 50.55 115.25 49.8 116 49.05 116 47.6 116 46.25 115.25 45.5 114.5 44.75 113.1 44.75 L109.5 44.75 109.5 50.55 M133.65 39.7 L138.4 40.35 Q140.7 41 142.45 42.1 L140.15 46.9 137.75 45.75 135.25 44.9 133.15 44.6 131.9 44.85 Q131.4 45.15 131.4 45.7 131.45 46.45 132.2 46.9 L134.25 47.7 136.9 48.45 Q138.3 48.9 139.55 49.6 140.8 50.3 141.55 51.5 142.35 52.7 142.4 54.55 142.35 56.8 141.2 58.3 140 59.75 138.05 60.45 136.1 61.2 133.7 61.2 L130.1 60.75 Q128.25 60.35 126.6 59.6 L123.6 57.85 125.95 53.1 128.45 54.75 131.25 55.9 133.8 56.3 135.35 56 Q135.9 55.6 135.95 54.9 135.9 54.15 135.15 53.7 L133.1 52.9 130.45 52.2 127.8 51.15 Q126.55 50.45 125.8 49.3 125 48.15 124.95 46.3 125 44.3 126.05 42.8 127.15 41.3 129.05 40.5 131 39.7 133.65 39.7 M92.95 103.15 L92.95 99.5 97.45 99.5 97.45 103.15 99.85 103.15 99.85 107.2 97.45 107.2 97.45 112.2 92.95 112.2 92.95 107.2 84.55 107.2 84.55 103.6 92 91.2 97.1 91.2 90 103.15 92.95 103.15 M118.25 98.65 L123 93.8 125.6 96.45 120.9 101.3 125.65 106.15 123.05 108.85 118.25 103.95 113.5 108.85 110.85 106.15 115.65 101.3 110.85 96.45 113.5 93.8 118.25 98.65 M132.55 91.2 L141.05 91.2 141.05 112.2 136.55 112.2 136.55 95.2 132.55 95.2 132.55 91.2 M151.25 96.55 Q150.25 98.45 150.25 101.6 150.25 104.75 151.25 106.7 152.25 108.6 154.35 108.6 156.45 108.6 157.45 106.7 158.45 104.75 158.45 101.6 158.45 98.45 157.45 96.55 156.45 94.6 154.35 94.6 152.25 94.6 151.25 96.55 M154.35 112.45 Q150 112.45 147.85 109.5 145.7 106.55 145.7 101.6 145.7 96.65 147.85 93.7 150 90.75 154.35 90.75 158.7 90.75 160.85 93.7 163 96.65 163 101.6 163 106.55 160.85 109.5 158.7 112.45 154.35 112.45 M70.25 44.95 L64.15 44.95 64.15 61 57.85 61 57.85 44.95 51.8 44.95 51.8 39.95 70.25 39.95 70.25 44.95 M42.4 39.7 L47.15 40.35 Q49.45 41 51.2 42.1 L48.9 46.9 46.5 45.75 44 44.9 41.9 44.6 40.65 44.85 Q40.15 45.15 40.15 45.7 40.2 46.45 40.95 46.9 41.75 47.35 43 47.7 L45.65 48.45 Q47.05 48.9 48.3 49.6 49.55 50.3 50.3 51.5 51.1 52.7 51.15 54.55 51.1 56.8 49.95 58.3 48.75 59.75 46.8 60.45 44.85 61.2 42.45 61.2 L38.85 60.75 35.35 59.6 Q33.7 58.9 32.35 57.85 L34.7 53.1 Q35.8 54.05 37.2 54.75 38.6 55.5 40 55.9 L42.55 56.3 44.1 56 Q44.65 55.6 44.7 54.9 44.65 54.15 43.9 53.7 L41.85 52.9 39.2 52.2 36.55 51.15 Q35.3 50.45 34.55 49.3 33.75 48.15 33.7 46.3 33.75 44.3 34.8 42.8 35.9 41.3 37.8 40.5 39.75 39.7 42.4 39.7 M32.9 91.2 L41.4 91.2 41.4 112.2 36.9 112.2 36.9 95.2 32.9 95.2 32.9 91.2 M54.7 112.45 Q50.35 112.45 48.2 109.5 46.05 106.55 46.05 101.6 46.05 96.65 48.2 93.7 50.35 90.75 54.7 90.75 59.05 90.75 61.2 93.7 63.35 96.65 63.35 101.6 63.35 106.55 61.2 109.5 59.05 112.45 54.7 112.45 M51.6 96.55 Q50.6 98.45 50.6 101.6 50.6 104.75 51.6 106.7 52.6 108.6 54.7 108.6 56.8 108.6 57.8 106.7 58.8 104.75 58.8 101.6 58.8 98.45 57.8 96.55 56.8 94.6 54.7 94.6 52.6 94.6 51.6 96.55 M73.35 102.4 L76 99.4 Q76.8 98.3 76.8 97.25 76.8 96.15 76.1 95.45 75.4 94.75 74.35 94.75 72.35 94.75 70.6 97.6 L66.85 95.35 Q68.3 93.1 70.05 91.95 71.8 90.75 74.55 90.75 77.25 90.75 79.3 92.45 81.35 94.2 81.35 97.15 81.35 98.8 80.5 100.3 79.7 101.75 77.5 104.05 L73.7 108 81.95 108 81.95 112.2 67.2 112.2 67.2 108.7 73.35 102.4 M82.45 53.1 L79.9 46.2 77.35 53.1 82.45 53.1"/>
    <path fill="none" stroke="#FFFFFF" stroke-width="2" stroke-linecap="butt" stroke-linejoin="miter" stroke-miterlimit="3" d="M32 76 L200 76"/>
  </g>
</svg>