<svg xmlns="http://www.w3.org/2000/svg" xmlns:xlink="http://www.w3.org/1999/xlink">
  <defs/>
  <g>
    <path stroke="none" fill="#333335" d="M0 0 L1024 0 1024 1024 0 1024 0 0"/>
    <path stroke="none" fill="#000000" fill-opacity="0.10196078431372549" d="M512 256 L512 0 768 0 768 256 1024 256 1024 512 768 512 768 768 1024 768 1024 1024 768 1024 768 768 512 768 512 1024 256 1024 256 768 0 768 0 512 256 512 256 256 0 256 0 0 256 0 256 256 512 256 512 512 256 512 256 768 512 768 512 512 768 512 768 256 512 256"/>
  </g>
</svg>