<svg xmlns="http://www.w3.org/2000/svg" xmlns:xlink="http://www.w3.org/1999/xlink">
  <defs/>
  <g>
    <path stroke="none" fill="#333335" d="M0 0 L1024 0 1024 1024 0 1024 0 0"/>
    <path stroke="none" fill="#FFFFFF" d="M1023 1 L513 1 513 511 1023 511 1023 1 M1 1 L1 511 511 511 511 1 1 1 M1 1023 L511 1023 511 513 1 513 1 1023 M1023 1023 L1023 513.05 513 513 513 1023 1023 1023 M0 0 L1024 0 1024 1024 0 1024 0 0"/>
    <path stroke="none" fill="#FFFFFF" fill-opacity="0.2" d="M257 1024 L256 1024 256 769 0 769 0 768 256 768 256 257 0 257 0 256 256 256 256 0 257 0 257 256 768 256 768 0 769 0 769 256 1024 256 1024 257 769 257 769 768 1024 768 1024 769 769 769 769 1024 768 1024 768 769 257 769 257 1024 M257 768 L768 768 768 257 257 257 257 768"/>
    <path stroke="none" fill="#FFFFFF" fill-opacity="0.10196078431372549" d="M896 0 L897 0 897 1024 896 1024 896 0 M640 0 L641 0 641 1024 640 1024 640 0 M384 0 L385 0 385 1024 384 1024 384 0 M128 0 L129 0 129 1024 128 1024 128 0"/>
    <path stroke="none" fill="#FFFFFF" fill-opacity="0.10196078431372549" d="M1024 128 L1024 129 0 129 0 128 1024 128 M1024 384 L1024 385 0 385 0 384 1024 384 M1024 640 L1024 641 0 641 0 640 1024 640 M1024 896 L1024 897 0 897 0 896 1024 896"/>
  </g>
</svg>