<svg xmlns="http://www.w3.org/2000/svg" xmlns:xlink="http://www.w3.org/1999/xlink">
  <defs/>
  <g>
    <path stroke="none" fill="#333335" d="M0 0 L1024 0 1024 1024 0 1024 0 0"/>
    <path stroke="none" fill="#FFFFFF" fill-opacity="0.10196078431372549" d="M257 1024 L256 1024 256 897 129 897 129 1024 128 1024 128 897 0 897 0 896 128 896 128 769 0 769 0 768 128 768 128 641 0 641 0 640 128 640 128 513 0 513 0 512 128 512 128 385 0 385 0 384 128 384 128 257 0 257 0 256 128 256 128 129 0 129 0 128 128 128 128 0 129 0 129 128 256 128 256 0 257 0 257 128 384 128 384 0 385 0 385 128 512 128 512 0 513 0 513 128 640 128 640 0 641 0 641 128 768 128 768 0 769 0 769 128 896 128 896 0 897 0 897 128 1024 128 1024 129 897 129 897 256 1024 256 1024 257 897 257 897 384 1024 384 1024 385 897 385 897 512 1024 512 1024 513 897 513 897 640 1024 640 1024 641 897 641 897 768 1024 768 1024 769 897 769 897 896 1024 896 1024 897 897 897 897 1024 896 1024 896 897 769 897 769 1024 768 1024 768 897 641 897 641 1024 640 1024 640 897 513 897 513 1024 512 1024 512 897 385 897 385 1024 384 1024 384 897 257 897 257 1024 M769 257 L769 384 896 384 896 257 769 257 M768 257 L641 257 641 384 768 384 768 257 M769 256 L896 256 896 129 769 129 769 256 M769 512 L896 512 896 385 769 385 769 512 M768 256 L768 129 641 129 641 256 768 256 M769 768 L896 768 896 641 769 641 769 768 M768 768 L768 641 641 641 641 768 768 768 M769 769 L769 896 896 896 896 769 769 769 M896 513 L769 513 769 640 896 640 896 513 M641 513 L641 640 768 640 768 513 641 513 M641 512 L768 512 768 385 641 385 641 512 M513 256 L640 256 640 129 513 129 513 256 M384 384 L384 257 257 257 257 384 384 384 M512 257 L385 257 385 384 512 384 512 257 M513 257 L513 384 640 384 640 257 513 257 M513 512 L640 512 640 385 513 385 513 512 M384 129 L257 129 257 256 384 256 384 129 M512 256 L512 129 385 129 385 256 512 256 M512 512 L512 385 385 385 385 512 512 512 M256 257 L129 257 129 384 256 384 256 257 M129 129 L129 256 256 256 256 129 129 129 M256 512 L256 385 129 385 129 512 256 512 M256 768 L256 641 129 641 129 768 256 768 M257 768 L384 768 384 641 257 641 257 768 M256 769 L129 769 129 896 256 896 256 769 M129 513 L129 640 256 640 256 513 129 513 M384 513 L257 513 257 640 384 640 384 513 M640 513 L513 513 513 640 640 640 640 513 M512 768 L512 641 385 641 385 768 512 768 M513 768 L640 768 640 641 513 641 513 768 M513 769 L513 896 640 896 640 769 513 769 M512 769 L385 769 385 896 512 896 512 769 M385 513 L385 640 512 640 512 513 385 513 M257 769 L257 896 384 896 384 769 257 769 M257 512 L384 512 384 385 257 385 257 512 M768 769 L641 769 641 896 768 896 768 769"/>
    <path stroke="none" fill="#FFFFFF" d="M2 2 L2 1022 1022 1022 1022 2 2 2 M0 0 L1024 0 1024 1024 0 1024 0 0"/>
    <path stroke="none" fill="#FFFFFF" fill-opacity="0.4" d="M513 511 L1024 511 1024 513 1003.9 513 1003.9 513.05 1002.85 513.05 1002.45 513.05 1002 513.05 513 513 513 1024 511 1024 511 1010.95 511 513 6.95 513 6.45 513 6.05 513 0 513 0 511 511 511 511 509.9 511 509.55 511 509.05 511 8.5 511 0 513 0 513 511"/>
    <path fill="none" stroke="#FFFFFF" stroke-width="0.05" stroke-opacity="0.2" stroke-linecap="round" stroke-linejoin="miter" stroke-miterlimit="3" d="M640 128 L768 256 896.05 128 767.95 0 640 128 512 0 384.05 128 512.05 256 384.05 384 512.05 512 640 384 512.05 256 640 128 M896.05 384 L767.95 256 640 384 768 512 896.05 384 1024.05 256 896.05 128 M640 640 L768 768 896.05 640 767.95 512 640 640 512.05 512 384.05 640 512.05 768 640 640 M896.05 384 L1024.05 512 896.05 640 1024.05 768 896.05 896 768 1024 640 896 512.05 1024 384.05 896 256 1024 128 896 255.95 768 384.05 896 512.05 768 640 896 767.95 768 896.05 896 M128 128 L255.95 0 384.05 128 256 256 128 128 0.05 256 128 384 255.95 256 384.05 384 256 512 128 384 0.05 512 128 640 255.95 512 384.05 640 256 768 128 640 0.05 768 128 896"/>
    <path fill="none" stroke="#FFFFFF" stroke-width="0.05" stroke-opacity="0.2" stroke-linecap="round" stroke-linejoin="miter" stroke-miterlimit="3" d="M128 896 L0 1024 M896.05 128 L1024 0 M896.05 896 L1024.05 1024"/>
    <path fill="none" stroke="#FFFFFF" stroke-width="0.05" stroke-opacity="0.2" stroke-linecap="butt" stroke-linejoin="miter" stroke-miterlimit="3" d="M0.05 0 L128 128"/>
  </g>
</svg>