<svg xmlns="http://www.w3.org/2000/svg" xmlns:xlink="http://www.w3.org/1999/xlink">
  <defs/>
  <g>
    <path stroke="none" fill="#333335" d="M0 0 L1024 0 1024 1024 0 1024 0 0"/>
    <path stroke="none" fill="#FFFFFF" fill-opacity="0.10196078431372549" d="M257 1024 L256 1024 256 897 129 897 129 1024 128 1024 128 897 0 897 0 896 128 896 128 769 0 769 0 768 128 768 128 641 0 641 0 640 128 640 128 513 0 513 0 512 128 512 128 385 0 385 0 384 128 384 128 257 0 257 0 256 128 256 128 129 0 129 0 128 128 128 128 0 129 0 129 128 256 128 256 0 257 0 257 128 384 128 384 0 385 0 385 128 512 128 512 0 513 0 513 128 640 128 640 0 641 0 641 128 768 128 768 0 769 0 769 128 896 128 896 0 897 0 897 128 1024 128 1024 129 897 129 897 256 1024 256 1024 257 897 257 897 384 1024 384 1024 385 897 385 897 512 1024 512 1024 513 897 513 897 640 1024 640 1024 641 897 641 897 768 1024 768 1024 769 897 769 897 896 1024 896 1024 897 897 897 897 1024 896 1024 896 897 769 897 769 1024 768 1024 768 897 641 897 641 1024 640 1024 640 897 513 897 513 1024 512 1024 512 897 385 897 385 1024 384 1024 384 897 257 897 257 1024 M768 257 L641 257 641 384 768 384 768 257 M769 257 L769 384 896 384 896 257 769 257 M768 256 L768 129 641 129 641 256 768 256 M769 256 L896 256 896 129 769 129 769 256 M769 512 L896 512 896 385 769 385 769 512 M768 768 L768 641 641 641 641 768 768 768 M769 768 L896 768 896 641 769 641 769 768 M896 513 L769 513 769 640 896 640 896 513 M641 513 L641 640 768 640 768 513 641 513 M769 769 L769 896 896 896 896 769 769 769 M641 512 L768 512 768 385 641 385 641 512 M513 256 L640 256 640 129 513 129 513 256 M512 257 L385 257 385 384 512 384 512 257 M384 384 L384 257 257 257 257 384 384 384 M513 257 L513 384 640 384 640 257 513 257 M513 512 L640 512 640 385 513 385 513 512 M512 256 L512 129 385 129 385 256 512 256 M512 512 L512 385 385 385 385 512 512 512 M384 129 L257 129 257 256 384 256 384 129 M256 257 L129 257 129 384 256 384 256 257 M256 512 L256 385 129 385 129 512 256 512 M129 129 L129 256 256 256 256 129 129 129 M256 768 L256 641 129 641 129 768 256 768 M257 768 L384 768 384 641 257 641 257 768 M129 513 L129 640 256 640 256 513 129 513 M384 513 L257 513 257 640 384 640 384 513 M256 769 L129 769 129 896 256 896 256 769 M640 513 L513 513 513 640 640 640 640 513 M512 768 L512 641 385 641 385 768 512 768 M513 768 L640 768 640 641 513 641 513 768 M513 769 L513 896 640 896 640 769 513 769 M385 513 L385 640 512 640 512 513 385 513 M512 769 L385 769 385 896 512 896 512 769 M257 512 L384 512 384 385 257 385 257 512 M257 769 L257 896 384 896 384 769 257 769 M768 769 L641 769 641 896 768 896 768 769"/>
    <path stroke="none" fill="#FFFFFF" d="M1023 1 L1 1 1 1023 1023 1023 1023 1 M0 0 L1024 0 1024 1024 0 1024 0 0"/>
    <path stroke="none" fill="#FFFFFF" fill-opacity="0.4" d="M768 158 L769 158 Q769.4 158 769.7 158.3 L770 159 770 255 866 255 Q866.4 255 866.7 255.3 L867 256 867 257 866.7 257.7 866 258 770 258 770 354 769.7 354.7 Q769.4 355 769 355 L768 355 767.3 354.7 Q767 354.4 767 354 L767 258 671 258 670.3 257.7 Q670 257.4 670 257 L670 256 Q670 255.6 670.3 255.3 670.6 255 671 255 L767 255 767 159 Q767 158.6 767.3 158.3 767.6 158 768 158 M768 670 L769 670 Q769.4 670 769.7 670.3 L770 671 770 767 866 767 Q866.4 767 866.7 767.3 L867 768 867 769 866.7 769.7 866 770 770 770 770 866 769.7 866.7 Q769.4 867 769 867 L768 867 767.3 866.7 Q767 866.4 767 866 L767 770 671 770 670.3 769.7 Q670 769.4 670 769 L670 768 Q670 767.6 670.3 767.3 670.6 767 671 767 L767 767 767 671 Q767 670.6 767.3 670.3 767.6 670 768 670 M355 256 L355 257 354.7 257.7 Q354.4 258 354 258 L258 258 258 354 257.7 354.7 257 355 256 355 255.3 354.7 Q255 354.4 255 354 L255 258 159 258 158.3 257.7 Q158 257.4 158 257 L158 256 Q158 255.6 158.3 255.3 158.6 255 159 255 L255 255 255 159 Q255 158.6 255.3 158.3 255.6 158 256 158 L257 158 Q257.4 158 257.7 158.3 L258 159 258 255 354 255 Q354.4 255 354.7 255.3 L355 256 M158 769 L158 768 Q158 767.6 158.3 767.3 158.6 767 159 767 L255 767 255 671 Q255 670.6 255.3 670.3 255.6 670 256 670 L257 670 Q257.4 670 257.7 670.3 L258 671 258 767 354 767 Q354.4 767 354.7 767.3 L355 768 355 769 354.7 769.7 Q354.4 770 354 770 L258 770 258 866 257.7 866.7 257 867 256 867 255.3 866.7 Q255 866.4 255 866 L255 770 159 770 158.3 769.7 Q158 769.4 158 769"/>
  </g>
</svg>