<svg xmlns="http://www.w3.org/2000/svg" xmlns:xlink="http://www.w3.org/1999/xlink">
  <defs/>
  <g>
    <path stroke="none" fill="#333335" d="M0 0 L1024 0 1024 1024 0 1024 0 0"/>
    <path stroke="none" fill="#000000" fill-opacity="0.10196078431372549" d="M512 512 L0 512 0 0 512 0 512 512 1024 512 1024 1024 512 1024 512 512"/>
    <path stroke="none" fill="#000000" fill-opacity="0.2" d="M1023 1 L513 1 513 511 1023 511 1023 1 M1 1 L1 511 511 511 511 1 1 1 M1 1023 L511 1023 511 513 1 513 1 1023 M0 0 L1024 0 1024 1024 0 1024 0 0 M1023 1023 L1023 513.05 513 513 513 1023 1023 1023"/>
    <path stroke="none" fill="#000000" fill-opacity="0.2" d="M768 158 L769 158 Q769.4 158 769.7 158.3 L770 159 770 255 866 255 Q866.4 255 866.7 255.3 L867 256 867 257 866.7 257.7 866 258 770 258 770 354 769.7 354.7 Q769.4 355 769 355 L768 355 767.3 354.7 Q767 354.4 767 354 L767 258 671 258 670.3 257.7 Q670 257.4 670 257 L670 256 Q670 255.6 670.3 255.3 670.6 255 671 255 L767 255 767 159 Q767 158.6 767.3 158.3 767.6 158 768 158 M768 670 L769 670 Q769.4 670 769.7 670.3 L770 671 770 767 866 767 Q866.4 767 866.7 767.3 L867 768 867 769 866.7 769.7 866 770 770 770 770 866 769.7 866.7 Q769.4 867 769 867 L768 867 767.3 866.7 Q767 866.4 767 866 L767 770 671 770 670.3 769.7 Q670 769.4 670 769 L670 768 Q670 767.6 670.3 767.3 670.6 767 671 767 L767 767 767 671 Q767 670.6 767.3 670.3 767.6 670 768 670 M355 256 L355 257 354.7 257.7 Q354.4 258 354 258 L258 258 258 354 257.7 354.7 257 355 256 355 255.3 354.7 Q255 354.4 255 354 L255 258 159 258 158.3 257.7 Q158 257.4 158 257 L158 256 Q158 255.6 158.3 255.3 158.6 255 159 255 L255 255 255 159 Q255 158.6 255.3 158.3 255.6 158 256 158 L257 158 Q257.4 158 257.7 158.3 L258 159 258 255 354 255 Q354.4 255 354.7 255.3 L355 256 M158 769 L158 768 Q158 767.6 158.3 767.3 158.6 767 159 767 L255 767 255 671 Q255 670.6 255.3 670.3 255.6 670 256 670 L257 670 Q257.4 670 257.7 670.3 L258 671 258 767 354 767 Q354.4 767 354.7 767.3 L355 768 355 769 354.7 769.7 Q354.4 770 354 770 L258 770 258 866 257.7 866.7 257 867 256 867 255.3 866.7 Q255 866.4 255 866 L255 770 159 770 158.3 769.7 Q158 769.4 158 769"/>
  </g>
</svg>