<svg xmlns="http://www.w3.org/2000/svg" xmlns:xlink="http://www.w3.org/1999/xlink">
  <defs/>
  <g>
    <path stroke="none" fill="#333335" d="M0 0 L1024 0 1024 1024 0 1024 0 0"/>
    <path stroke="none" fill="#FFFFFF" d="M1023 1 L513 1 513 511 1023 511 1023 1 M1 1 L1 511 511 511 511 1 1 1 M1 1023 L511 1023 511 513 1 513 1 1023 M0 0 L1024 0 1024 1024 0 1024 0 0 M1023 1023 L1023 513.05 513 513 513 1023 1023 1023"/>
    <path stroke="none" fill="#FFFFFF" fill-opacity="0.2" d="M257 1024 L256 1024 256 769 0 769 0 768 256 768 256 257 0 257 0 256 256 256 256 0 257 0 257 256 768 256 768 0 769 0 769 256 1024 256 1024 257 769 257 769 768 1024 768 1024 769 769 769 769 1024 768 1024 768 769 257 769 257 1024 M257 768 L768 768 768 257 257 257 257 768"/>
    <path stroke="none" fill="#FFFFFF" fill-opacity="0.10196078431372549" d="M896 0 L897 0 897 1024 896 1024 896 0 M640 0 L641 0 641 1024 640 1024 640 0 M384 0 L385 0 385 1024 384 1024 384 0 M128 0 L129 0 129 1024 128 1024 128 0"/>
    <path stroke="none" fill="#FFFFFF" fill-opacity="0.10196078431372549" d="M1024 128 L1024 129 0 129 0 128 1024 128 M1024 384 L1024 385 0 385 0 384 1024 384 M1024 640 L1024 641 0 641 0 640 1024 640 M1024 896 L1024 897 0 897 0 896 1024 896"/>
    <path stroke="none" fill="#FFFFFF" d="M162.35 96.35 Q164.9 96.35 166.55 97.45 168.25 98.5 169.05 100.5 169.85 102.5 169.7 105.2 L156.8 105.2 Q157.2 107.55 158.7 108.9 160.2 110.2 162.55 110.25 L165.25 109.75 167.45 108.25 168.75 109.65 Q167.6 110.9 166 111.6 164.35 112.25 162.4 112.3 160.05 112.25 158.25 111.25 156.5 110.25 155.5 108.5 154.5 106.7 154.5 104.3 154.5 101.95 155.5 100.15 156.5 98.35 158.25 97.35 160.05 96.35 162.35 96.35 M176.1 96.4 L176.1 99.9 Q176.9 98.15 178.3 97.25 179.75 96.35 181.75 96.3 L181.75 98.7 Q179.25 98.65 177.75 100.05 176.3 101.45 176.1 103.8 L176.1 112.2 173.75 112.2 173.75 96.4 176.1 96.4 M192.6 133.15 L192.6 129.5 197.1 129.5 197.1 133.15 199.5 133.15 199.5 137.2 197.1 137.2 197.1 142.2 192.6 142.2 192.6 137.2 184.2 137.2 184.2 133.6 191.65 121.2 196.75 121.2 189.65 133.15 192.6 133.15 M156.8 103.3 L167.6 103.3 Q167.5 101 166.1 99.7 164.7 98.35 162.35 98.35 160.05 98.35 158.6 99.7 157.1 101 156.8 103.3 M173 132.4 L175.65 129.4 Q176.45 128.3 176.45 127.25 176.45 126.15 175.75 125.45 175.05 124.75 174 124.75 172 124.75 170.25 127.6 L166.5 125.35 Q167.95 123.1 169.7 121.95 171.45 120.75 174.2 120.75 176.9 120.75 178.95 122.45 181 124.2 181 127.15 181 128.8 180.15 130.3 179.35 131.75 177.15 134.05 L173.35 138 181.6 138 181.6 142.2 166.85 142.2 166.85 138.7 173 132.4 M58.35 61 L51.95 61 48.6 47.6 45.15 61 38.75 61 31.9 39.95 38.6 39.95 42.15 54.55 45.7 40 51.8 39.95 55.35 54.55 58.9 39.95 65.25 39.95 58.35 61 M79.35 57.65 L70.85 57.65 69.6 61 63.15 61 72.15 39.95 78.55 39.95 87.2 61 80.55 61 79.35 57.65 M152.15 109.25 L152.8 111.1 151.05 112 149.25 112.3 Q147.45 112.35 146.35 111.25 145.25 110.15 145.2 107.8 L145.2 98.8 142.95 98.8 142.95 96.9 145.2 96.9 145.2 92.75 147.55 92.75 147.55 96.9 152.55 96.9 152.55 98.8 147.55 98.8 147.55 107.4 Q147.55 108.8 148.05 109.45 148.6 110.05 149.6 110.05 150.85 110.05 152.15 109.25 M133.25 96.35 Q135.8 96.35 137.45 97.45 139.15 98.5 139.95 100.5 140.75 102.5 140.6 105.2 L127.7 105.2 Q128.1 107.55 129.6 108.9 131.1 110.2 133.45 110.25 L136.15 109.75 138.35 108.25 139.65 109.65 Q138.5 110.9 136.9 111.6 135.25 112.25 133.3 112.3 130.95 112.25 129.15 111.25 127.4 110.25 126.4 108.5 125.4 106.7 125.4 104.3 125.4 101.95 126.4 100.15 127.4 98.35 129.15 97.35 130.95 96.35 133.25 96.35 M115.95 96.3 Q118.75 96.35 120.25 97.95 121.8 99.55 121.8 102.45 L121.8 112.2 119.5 112.2 119.5 103.1 Q119.45 100.95 118.3 99.8 117.15 98.65 115.1 98.6 113.45 98.7 112.3 99.4 111.15 100.15 110.55 101.45 109.95 102.7 109.95 104.45 L109.95 112.2 107.55 112.2 107.55 103.1 Q107.55 100.95 106.4 99.8 105.25 98.65 103.2 98.6 101.55 98.7 100.4 99.4 99.25 100.15 98.65 101.45 98 102.7 98 104.45 L98 112.2 95.7 112.2 95.7 96.4 98 96.4 98 99.95 Q98.8 98.1 100.35 97.25 101.9 96.3 104.05 96.3 106.25 96.3 107.75 97.4 109.2 98.45 109.7 100.45 110.45 98.35 112.05 97.35 113.65 96.3 115.95 96.3 M95 55.8 L103.85 55.8 103.85 61 88.75 61 88.75 39.95 95 39.95 95 55.8 M112.2 55.8 L121.05 55.8 121.05 61 105.95 61 105.95 39.95 112.2 39.95 112.2 55.8 M32.9 91.2 L41.4 91.2 41.4 112.2 36.9 112.2 36.9 95.2 32.9 95.2 32.9 91.2 M77.7 53.1 L75.15 46.2 72.6 53.1 77.7 53.1 M60.15 98.65 L64.9 93.8 67.5 96.45 62.8 101.3 67.55 106.15 64.95 108.85 60.15 103.95 55.4 108.85 52.75 106.15 57.55 101.3 52.75 96.45 55.4 93.8 60.15 98.65 M74.45 91.2 L82.95 91.2 82.95 112.2 78.45 112.2 78.45 95.2 74.45 95.2 74.45 91.2 M73.35 132.4 L76 129.4 Q76.8 128.3 76.8 127.25 76.8 126.15 76.1 125.45 75.4 124.75 74.35 124.75 72.35 124.75 70.6 127.6 L66.85 125.35 Q68.3 123.1 70.05 121.95 71.8 120.75 74.55 120.75 77.25 120.75 79.3 122.45 81.35 124.2 81.35 127.15 81.35 128.8 80.5 130.3 79.7 131.75 77.5 134.05 L73.7 138 81.95 138 81.95 142.2 67.2 142.2 67.2 138.7 73.35 132.4 M54.7 142.45 Q50.35 142.45 48.2 139.5 46.05 136.55 46.05 131.6 46.05 126.65 48.2 123.7 50.35 120.75 54.7 120.75 59.05 120.75 61.2 123.7 63.35 126.65 63.35 131.6 63.35 136.55 61.2 139.5 59.05 142.45 54.7 142.45 M51.6 126.55 Q50.6 128.45 50.6 131.6 50.6 134.75 51.6 136.7 52.6 138.6 54.7 138.6 56.8 138.6 57.8 136.7 58.8 134.75 58.8 131.6 58.8 128.45 57.8 126.55 56.8 124.6 54.7 124.6 52.6 124.6 51.6 126.55 M32.9 121.2 L41.4 121.2 41.4 142.2 36.9 142.2 36.9 125.2 32.9 125.2 32.9 121.2 M154.35 142.45 Q150 142.45 147.85 139.5 145.7 136.55 145.7 131.6 145.7 126.65 147.85 123.7 150 120.75 154.35 120.75 158.7 120.75 160.85 123.7 163 126.65 163 131.6 163 136.55 160.85 139.5 158.7 142.45 154.35 142.45 M127.7 103.3 L138.5 103.3 Q138.4 101 137 99.7 135.6 98.35 133.25 98.35 130.95 98.35 129.5 99.7 128 101 127.7 103.3 M132.55 121.2 L141.05 121.2 141.05 142.2 136.55 142.2 136.55 125.2 132.55 125.2 132.55 121.2 M118.25 128.65 L123 123.8 125.6 126.45 120.9 131.3 125.65 136.15 123.05 138.85 118.25 133.95 113.5 138.85 110.85 136.15 115.65 131.3 110.85 126.45 113.5 123.8 118.25 128.65 M151.25 126.55 Q150.25 128.45 150.25 131.6 150.25 134.75 151.25 136.7 152.25 138.6 154.35 138.6 156.45 138.6 157.45 136.7 158.45 134.75 158.45 131.6 158.45 128.45 157.45 126.55 156.45 124.6 154.35 124.6 152.25 124.6 151.25 126.55 M92.95 133.15 L92.95 129.5 97.45 129.5 97.45 133.15 99.85 133.15 99.85 137.2 97.45 137.2 97.45 142.2 92.95 142.2 92.95 137.2 84.55 137.2 84.55 133.6 92 121.2 97.1 121.2 90 133.15 92.95 133.15"/>
    <path fill="none" stroke="#FFFFFF" stroke-width="2" stroke-linecap="butt" stroke-linejoin="miter" stroke-miterlimit="3" d="M32 76 L200 76"/>
  </g>
</svg>